<svg width="100" height="101" viewBox="0 0 100 101" fill="none" xmlns="http://www.w3.org/2000/svg">
<g clip-path="url(#clip0_39_139)">
<path d="M50.0959 0.50415C50.0959 0.50415 50.0626 0.50415 50.0459 0.50415C50.0292 0.50415 50.0167 0.50415 50.0042 0.50415C49.9834 0.50415 49.9667 0.50415 49.9459 0.50415C49.9376 0.50415 49.9334 0.50415 49.9251 0.50415C22.3876 0.545817 6.51851e-05 22.9541 6.51851e-05 50.5C6.51851e-05 51.2291 0.0167319 51.95 0.0458985 52.6708C0.0958985 53.8166 1.0084 54.6041 2.21673 54.6666C3.36673 54.6166 4.2584 53.6458 4.21256 52.4958C4.1834 51.8333 4.16673 51.1708 4.16673 50.5C4.16673 44.6166 5.3209 39.0083 7.35007 33.8333H27.7959C27.1834 35.725 26.6251 37.65 26.1917 39.6458C25.9459 40.7708 26.7459 42.1666 28.2251 42.1666C29.1834 42.1666 30.0501 41.5 30.2584 40.5208C30.7542 38.2208 31.4209 35.9958 32.1834 33.8333H67.7917C69.6167 39.025 70.8334 44.6375 70.8334 50.5C70.8334 56.3625 69.6167 61.9708 67.7876 67.1666H60.4167C59.2667 67.1666 58.3334 68.1 58.3334 69.25C58.3334 70.4 59.2667 71.3333 60.4167 71.3333H66.1542C60.4834 84.425 51.4542 94.0167 49.1584 96.3125C48.7709 96.3042 48.3834 96.3042 48.0001 96.2875C46.8292 96.2708 45.8792 97.1375 45.8292 98.2833C45.7834 99.4292 46.6751 100.404 47.8251 100.454C48.5459 100.483 49.2667 100.5 49.9959 100.5C77.5667 100.5 99.9959 78.0708 99.9959 50.5C99.9959 22.9291 77.6209 0.558317 50.0959 0.50415ZM29.3001 29.6666H9.22507C16.0834 16.3041 29.2792 6.72915 44.8417 4.97498C40.6042 9.73748 33.7542 18.5292 29.3001 29.6666ZM33.8001 29.6666C38.9084 17.8583 46.8084 8.88748 50.0001 5.54582C53.1751 8.86665 61.0459 17.8291 66.1667 29.6666H33.8001ZM70.7126 29.6666C66.2667 18.5458 59.4126 9.74582 55.1626 4.97915C70.7209 6.73332 83.9167 16.3083 90.7709 29.6666H70.7126ZM55.1626 96.0208C59.4084 91.2541 66.2626 82.4541 70.7126 71.3333H90.7709C83.9167 84.6917 70.7209 94.2666 55.1626 96.0208ZM72.2084 67.1666C73.8876 61.9666 74.9959 56.3791 74.9959 50.5C74.9959 44.6208 73.8917 39.0333 72.2084 33.8333H92.6459C94.6751 39.0083 95.8292 44.6166 95.8292 50.5C95.8292 56.3833 94.6751 61.9916 92.6459 67.1666H72.2084ZM51.1501 49.3875C48.3251 46.5625 44.2042 45.6208 40.3917 46.9C40.3334 46.9208 3.70423 63.5541 3.70423 63.5541C1.52507 64.5416 0.0875652 66.7333 0.0417318 69.1292C6.51777e-05 71.5208 1.35423 73.7583 3.4959 74.8333L11.5709 78.8708L1.9709 88.4208C-0.783268 91.175 -0.783268 95.6583 1.9709 98.4208C4.72923 101.179 9.2209 101.175 11.9709 98.4208L21.6042 88.8291L25.7001 97.0375C26.7709 99.1666 28.9126 100.487 31.4042 100.487C33.8001 100.442 35.9917 99.0083 36.9792 96.825L53.4834 60.5041C54.9084 56.4208 54.0376 52.2583 51.1459 49.3791L51.1501 49.3875ZM49.6251 58.9625L33.1917 95.1083C32.8626 95.8375 32.1334 96.3167 31.2959 96.3292C30.5042 96.3292 29.7876 95.8875 29.4334 95.1791L24.0459 84.3958C23.7501 83.7958 23.1251 83.2 22.1834 83.2458C21.6376 83.2458 21.1042 83.4625 20.7126 83.8541L9.0334 95.4833C7.90423 96.6125 6.05007 96.6125 4.9209 95.4833C3.79173 94.35 3.79173 92.5042 4.9209 91.3792L16.5709 79.7875C17.0459 79.3167 17.2667 78.6416 17.1584 77.9791C17.0542 77.3167 16.6334 76.7458 16.0334 76.4458L5.36673 71.1167C4.65423 70.7583 4.20006 70.0083 4.21673 69.2125C4.22923 68.4166 4.7084 67.6875 5.43756 67.3583L41.7626 50.85C44.0501 50.0791 46.5209 50.6416 48.2126 52.3416C49.9667 54.0958 50.4584 56.575 49.6334 58.9708L49.6251 58.9625Z" fill="#00012E"/>
</g>
<defs>
<clipPath id="clip0_39_139">
<rect width="100" height="100" fill="white" transform="translate(0 0.5)"/>
</clipPath>
</defs>
</svg>
