<svg width="90" height="90" viewBox="0 0 90 90" fill="none" xmlns="http://www.w3.org/2000/svg">
<g clip-path="url(#clip0_61_660)">
<path d="M43.8993 40.3506L45.3115 41.0567L46.7757 40.4658C50.373 39.0165 62.1125 33.3307 62.1125 20.9223V11.1486C62.1125 7.93779 60.0648 5.10604 57.0176 4.09523L45.3895 0.237793L33.7615 4.09523C30.7142 5.10604 28.6665 7.94151 28.6665 11.1486V20.9223C28.6665 31.8851 40.3243 38.5631 43.8993 40.3506ZM32.3828 11.1486C32.3828 9.5432 33.4047 8.12732 34.9284 7.62192L45.3895 4.15469L55.8469 7.62192C57.3706 8.12732 58.3963 9.54692 58.3963 11.1486V20.9223C58.3963 30.9077 48.6263 35.7016 45.475 36.9837C42.2902 35.3783 32.3828 29.6739 32.3828 20.9223V11.1486ZM37.054 59.5895C36.3294 60.3141 36.3294 61.4959 37.054 62.2206C37.7787 62.9378 38.9605 62.9378 39.6814 62.2206L48.0986 53.6733L66.9547 70.6081H89.9841V74.3243H68.7905L49.7449 89.1891H41.0341L21.9885 74.3243H0.794922V70.6081H23.2669L42.3125 85.4729H48.4665L64.2382 73.1648L48.2547 58.8165L42.3199 64.8405C40.1348 67.0182 36.5969 67.0219 34.4267 64.8516C32.2527 62.6777 32.2527 59.1398 34.4267 56.9658L42.2196 49.2621L39.2132 46.5233C37.8493 45.2821 36.0841 44.5983 34.2409 44.5983C31.829 44.5983 26.2547 46.9543 23.5307 48.3145H0.794922V44.5983H22.6611C24.4078 43.751 30.5804 40.8821 34.1554 40.8821C37.0132 40.8821 39.6665 41.9077 41.7179 43.777L44.8395 46.6199L47.6824 43.8662C49.7078 41.956 52.4132 40.8821 55.2561 40.8821C58.7939 40.8821 66.1929 43.829 68.0584 44.5983H89.9841V48.3145L66.9696 48.1696C63.677 46.7871 57.5861 44.5983 55.2561 44.5983C53.3645 44.5983 51.5659 45.3118 50.1946 46.605L37.0578 59.5932L37.054 59.5895Z" fill="#00012E"/>
</g>
<defs>
<clipPath id="clip0_61_660">
<rect width="89.1892" height="89.1892" fill="white" transform="translate(0.794922)"/>
</clipPath>
</defs>
</svg>
