<svg width="90" height="90" viewBox="0 0 90 90" fill="none" xmlns="http://www.w3.org/2000/svg">
<g clip-path="url(#clip0_52_313)">
<path d="M66.9773 37.1526C59.0841 37.1526 52.4023 39.0182 48.4855 41.9614V18.5715C48.4855 12.2168 38.0615 7.42282 24.2409 7.42282C10.4203 7.42282 0 12.2168 0 18.5715V78.0311C0 84.3858 10.424 89.1798 24.2409 89.1798C34.5273 89.1798 42.9186 86.5227 46.5493 82.5463C49.8716 86.5227 57.5604 89.1798 66.9773 89.1798C79.6385 89.1798 89.1891 84.3858 89.1891 78.0311V48.3013C89.1891 41.9466 79.6422 37.1526 66.9773 37.1526ZM66.9773 40.8688C77.5648 40.8688 85.4729 44.7932 85.4729 48.3013C85.4729 51.8094 77.5648 55.7337 66.9773 55.7337C56.0777 55.7337 48.4855 51.8168 48.4855 48.3013C48.4855 44.7857 56.0777 40.8688 66.9773 40.8688ZM24.2409 11.139C35.9915 11.139 44.7692 15.0634 44.7692 18.5715C44.7692 22.0796 35.9915 26.004 24.2409 26.004C12.4902 26.004 3.71621 22.0796 3.71621 18.5715C3.71621 15.0634 12.4939 11.139 24.2409 11.139ZM3.71621 24.6512C7.9304 27.7431 15.3777 29.7202 24.2409 29.7202C33.104 29.7202 40.555 27.7431 44.7692 24.6512V33.4364C44.7692 36.9445 35.9915 40.8688 24.2409 40.8688C12.4902 40.8688 3.71621 36.9445 3.71621 33.4364V24.6512ZM3.71621 39.5161C7.9304 42.608 15.3777 44.5851 24.2409 44.5851C33.104 44.5851 40.555 42.608 44.7692 39.5161V48.3013C44.7692 51.8094 35.9915 55.7337 24.2409 55.7337C12.4902 55.7337 3.71621 51.8094 3.71621 48.3013V39.5161ZM3.71621 54.381C7.9304 57.4729 15.3777 59.45 24.2409 59.45C33.104 59.45 40.555 57.4729 44.7692 54.381V63.1662C44.7692 66.6743 35.9915 70.5986 24.2409 70.5986C12.4902 70.5986 3.71621 66.6743 3.71621 63.1662V54.381ZM24.2409 85.4635C12.4939 85.4635 3.71621 81.5392 3.71621 78.0311V69.2459C7.9304 72.3378 15.3777 74.3149 24.2409 74.3149C33.104 74.3149 40.555 72.3378 44.7692 69.2459V78.0311C44.7692 81.5392 35.9915 85.4635 24.2409 85.4635ZM66.9773 85.4635C56.0777 85.4635 48.4855 81.5466 48.4855 78.0311V69.5061C52.3986 72.4493 59.0804 74.3149 66.9773 74.3149C74.8743 74.3149 81.556 72.4493 85.4729 69.5061V78.0311C85.4729 81.5392 77.5648 85.4635 66.9773 85.4635ZM66.9773 70.5986C56.0777 70.5986 48.4855 66.6817 48.4855 63.1662V54.6412C52.3986 57.5844 59.0804 59.45 66.9773 59.45C74.8743 59.45 81.556 57.5844 85.4729 54.6412V63.1662C85.4729 66.6743 77.5648 70.5986 66.9773 70.5986ZM56.9844 14.807L54.3571 12.1796L65.0003 1.53632C67.0294 -0.496453 70.3368 -0.489021 72.3547 1.53632L82.9942 12.1796L80.3669 14.807L70.6044 5.04444V29.7202H66.8881V4.89951L56.9844 14.807Z" fill="#00012E"/>
</g>
<defs>
<clipPath id="clip0_52_313">
<rect width="89.1891" height="89.1893" fill="white"/>
</clipPath>
</defs>
</svg>
